<svg id="Layer_1" data-name="Layer 1" xmlns="http://www.w3.org/2000/svg" viewBox="0 0 368 232.5"><defs><style>.cls-1{fill:#ed1c24;}.cls-2{fill:#fff;}</style></defs><title>Makey-Cut</title><path class="cls-1" d="M281.08,210.64v-41H86.46v41a25.84,25.84,0,0,0,6.2,16.82H274.89A25.85,25.85,0,0,0,281.08,210.64Z"/><path class="cls-1" d="M281.08,164V118.36a25.94,25.94,0,0,0-25.94-26H112.41a26,26,0,0,0-25.95,26V164Z"/><path class="cls-1" d="M183.78,6.71c-44.16,0-80,35.51-80,79.31H263.73C263.73,42.22,227.93,6.71,183.78,6.71Z"/><circle class="cls-2" cx="140.01" cy="58.51" r="17.33"/><circle class="cls-2" cx="227.53" cy="58.51" r="17.33"/><path class="cls-1" d="M348.22,213h-5.89v-19.3h19.58V174.59c0-18.58-17.83-60-61.68-60H287.32v79.11h16.14V213h-5.89l-1.69,14.51h54Z"/><path class="cls-1" d="M70.05,213H64.16v-19.3H80.3V114.55H67.39c-43.85,0-61.68,41.45-61.68,60v19.07H25.29V213H19.4l-1.69,14.51h54Z"/><circle class="cls-2" cx="183.81" cy="164.5" r="52.03"/><path class="cls-1" d="M184.18,180.47H184l-15.14-49.92H149.12v67.91h13.4V151.38h.18a121.62,121.62,0,0,0,4,15.87l10.09,31.2H190l10.19-31.2a121.67,121.67,0,0,0,3.76-15.14h.19v46.34h14.4V130.55H198.32Z"/></svg>