<?xml version="1.0" encoding="utf-8"?>
<!-- Generator: Adobe Illustrator 19.2.1, SVG Export Plug-In . SVG Version: 6.00 Build 0)  -->
<svg version="1.1" id="Layer_1" xmlns="http://www.w3.org/2000/svg" xmlns:xlink="http://www.w3.org/1999/xlink" x="0px" y="0px"
	 viewBox="0 0 113 116" style="enable-background:new 0 0 113 116;" xml:space="preserve">
<style type="text/css">
	.st0{fill:#EC1C24;}
	.st1{fill:#FFFFFF;}
	.st2{fill:#ED1C24;}
</style>
<g>
	<g>
		<path class="st0" d="M27.4,51.6v12.2c0,4.3,3.5,7.7,7.7,7.7H47H66h11.8c4.3,0,7.7-3.5,7.7-7.7V51.6H27.4z"/>
		<path class="st0" d="M85.5,49.9V36.3c0-4.3-3.5-7.7-7.7-7.7H35.2c-4.3,0-7.7,3.5-7.7,7.7v13.6H85.5z"/>
	</g>
	<g>
		<path class="st0" d="M56.5,3C43.3,3,32.6,13.6,32.6,26.7h47.7C80.3,13.6,69.7,3,56.5,3z"/>
		<g>
			<g>
				<circle class="st1" cx="43.4" cy="18.5" r="5.2"/>
				<circle class="st1" cx="69.5" cy="18.5" r="5.2"/>
			</g>
		</g>
	</g>
	<g>
		<rect x="63.3" y="73.3" class="st0" width="16.5" height="12"/>
		<polygon class="st0" points="61.5,104.9 85.6,104.9 82.4,86.8 62.8,86.8 		"/>
		<polygon class="st0" points="60,113.4 91,113.4 91,109.8 86.5,106.4 60,106.4 		"/>
	</g>
	<g>
		<rect x="33.2" y="73.3" class="st0" width="16.5" height="12"/>
		<polygon class="st0" points="51.4,104.9 27.3,104.9 30.6,86.8 50.1,86.8 		"/>
		<polygon class="st0" points="52.9,113.4 22,113.4 22,109.8 26.5,106.4 52.9,106.4 		"/>
	</g>
	<path class="st0" d="M88,99.2V86.8H108C108,86.8,105.5,99.2,88,99.2z"/>
	<path class="st0" d="M105.7,58.8h4c0,0,0-0.1,0-5.7c0-5.5-5.3-17.9-18.4-17.9c-1.7,0-3.9,0-3.9,0v23.6h4.8v5.8h-1.8L88,85.2H108
		l-2.4-20.6h-1.8v-5.8H105.7z"/>
	<path class="st0" d="M25,99.2V86.8H5C5,86.8,7.5,99.2,25,99.2z"/>
	<path class="st0" d="M25.6,58.8V35.2c0,0-2.1,0-3.9,0C8.7,35.2,3.3,47.6,3.3,53.1c0,5.5,0,5.7,0,5.7h4h1.9v5.8H7.4L5,85.2H25
		l-2.4-20.6h-1.8v-5.8H25.6z"/>
	<g>
		<circle class="st1" cx="56.5" cy="50.1" r="15.5"/>
		<path class="st2" d="M56.6,54.9L56.6,54.9L52,40h-5.9v20.3h4v-14h0.1c0.4,2.3,0.7,3.2,1.2,4.7l3,9.3h3.9l3-9.3
			c0.4-1.5,0.8-2.8,1.1-4.5h0.1v13.8h4.3V40h-6L56.6,54.9z"/>
	</g>
</g>
</svg>
